<mxfile host="app.diagrams.net" modified="2020-11-18T03:58:09.118Z" agent="5.0 (Windows NT 10.0; Win64; x64) AppleWebKit/537.36 (KHTML, like Gecko) Chrome/86.0.4240.198 Safari/537.36" etag="uz0BDOg4AiKJLYr1n5MZ" version="13.9.9" type="github">
  <diagram id="ql17GTwR_WXvc2JiczR6" name="Page-1">
    <mxGraphModel dx="868" dy="482" grid="1" gridSize="10" guides="1" tooltips="1" connect="1" arrows="1" fold="1" page="1" pageScale="1" pageWidth="827" pageHeight="1169" math="0" shadow="0">
      <root>
        <mxCell id="0" />
        <mxCell id="1" parent="0" />
        <mxCell id="6Nf89VIRa7p8WbnDOGRJ-1" value="74" style="whiteSpace=wrap;html=1;aspect=fixed;" vertex="1" parent="1">
          <mxGeometry x="20" y="440" width="30" height="30" as="geometry" />
        </mxCell>
        <mxCell id="6Nf89VIRa7p8WbnDOGRJ-2" value="-69" style="whiteSpace=wrap;html=1;aspect=fixed;" vertex="1" parent="1">
          <mxGeometry x="70" y="440" width="30" height="30" as="geometry" />
        </mxCell>
        <mxCell id="6Nf89VIRa7p8WbnDOGRJ-4" value="83" style="whiteSpace=wrap;html=1;aspect=fixed;" vertex="1" parent="1">
          <mxGeometry x="120" y="440" width="30" height="30" as="geometry" />
        </mxCell>
        <mxCell id="6Nf89VIRa7p8WbnDOGRJ-5" value="-85" style="whiteSpace=wrap;html=1;aspect=fixed;" vertex="1" parent="1">
          <mxGeometry x="210" y="440" width="30" height="30" as="geometry" />
        </mxCell>
        <mxCell id="6Nf89VIRa7p8WbnDOGRJ-6" value="83" style="whiteSpace=wrap;html=1;aspect=fixed;" vertex="1" parent="1">
          <mxGeometry x="260" y="440" width="30" height="30" as="geometry" />
        </mxCell>
        <mxCell id="6Nf89VIRa7p8WbnDOGRJ-7" value="-68" style="whiteSpace=wrap;html=1;aspect=fixed;" vertex="1" parent="1">
          <mxGeometry x="310" y="440" width="30" height="30" as="geometry" />
        </mxCell>
        <mxCell id="6Nf89VIRa7p8WbnDOGRJ-8" value="65" style="whiteSpace=wrap;html=1;aspect=fixed;" vertex="1" parent="1">
          <mxGeometry x="384" y="440" width="30" height="30" as="geometry" />
        </mxCell>
        <mxCell id="6Nf89VIRa7p8WbnDOGRJ-9" value="-86" style="whiteSpace=wrap;html=1;aspect=fixed;" vertex="1" parent="1">
          <mxGeometry x="430" y="440" width="30" height="30" as="geometry" />
        </mxCell>
        <mxCell id="6Nf89VIRa7p8WbnDOGRJ-10" value="73" style="whiteSpace=wrap;html=1;aspect=fixed;" vertex="1" parent="1">
          <mxGeometry x="480" y="440" width="30" height="30" as="geometry" />
        </mxCell>
        <mxCell id="6Nf89VIRa7p8WbnDOGRJ-11" value="-68" style="whiteSpace=wrap;html=1;aspect=fixed;" vertex="1" parent="1">
          <mxGeometry x="550" y="440" width="30" height="30" as="geometry" />
        </mxCell>
        <mxCell id="6Nf89VIRa7p8WbnDOGRJ-12" value="79" style="whiteSpace=wrap;html=1;aspect=fixed;" vertex="1" parent="1">
          <mxGeometry x="600" y="440" width="30" height="30" as="geometry" />
        </mxCell>
        <mxCell id="6Nf89VIRa7p8WbnDOGRJ-13" value="-82" style="whiteSpace=wrap;html=1;aspect=fixed;" vertex="1" parent="1">
          <mxGeometry x="650" y="440" width="30" height="30" as="geometry" />
        </mxCell>
        <mxCell id="6Nf89VIRa7p8WbnDOGRJ-14" value="84" style="whiteSpace=wrap;html=1;aspect=fixed;" vertex="1" parent="1">
          <mxGeometry x="720" y="440" width="30" height="30" as="geometry" />
        </mxCell>
        <mxCell id="6Nf89VIRa7p8WbnDOGRJ-17" value="-69" style="whiteSpace=wrap;html=1;aspect=fixed;" vertex="1" parent="1">
          <mxGeometry x="770" y="440" width="30" height="30" as="geometry" />
        </mxCell>
        <mxCell id="6Nf89VIRa7p8WbnDOGRJ-18" value="71" style="whiteSpace=wrap;html=1;aspect=fixed;" vertex="1" parent="1">
          <mxGeometry x="820" y="440" width="30" height="30" as="geometry" />
        </mxCell>
        <mxCell id="6Nf89VIRa7p8WbnDOGRJ-19" value="-65" style="whiteSpace=wrap;html=1;aspect=fixed;" vertex="1" parent="1">
          <mxGeometry x="900" y="440" width="30" height="30" as="geometry" />
        </mxCell>
        <mxCell id="6Nf89VIRa7p8WbnDOGRJ-20" value="83" style="whiteSpace=wrap;html=1;aspect=fixed;" vertex="1" parent="1">
          <mxGeometry x="950" y="440" width="30" height="30" as="geometry" />
        </mxCell>
        <mxCell id="6Nf89VIRa7p8WbnDOGRJ-21" value="-65" style="whiteSpace=wrap;html=1;aspect=fixed;" vertex="1" parent="1">
          <mxGeometry x="1000" y="440" width="30" height="30" as="geometry" />
        </mxCell>
        <mxCell id="6Nf89VIRa7p8WbnDOGRJ-22" value="78" style="whiteSpace=wrap;html=1;aspect=fixed;" vertex="1" parent="1">
          <mxGeometry x="1070" y="440" width="30" height="30" as="geometry" />
        </mxCell>
        <mxCell id="6Nf89VIRa7p8WbnDOGRJ-23" value="-67" style="whiteSpace=wrap;html=1;aspect=fixed;" vertex="1" parent="1">
          <mxGeometry x="1120" y="440" width="30" height="30" as="geometry" />
        </mxCell>
        <mxCell id="6Nf89VIRa7p8WbnDOGRJ-24" value="72" style="whiteSpace=wrap;html=1;aspect=fixed;" vertex="1" parent="1">
          <mxGeometry x="1170" y="440" width="30" height="30" as="geometry" />
        </mxCell>
        <mxCell id="6Nf89VIRa7p8WbnDOGRJ-25" value="-69" style="whiteSpace=wrap;html=1;aspect=fixed;" vertex="1" parent="1">
          <mxGeometry x="1241" y="440" width="30" height="30" as="geometry" />
        </mxCell>
        <mxCell id="6Nf89VIRa7p8WbnDOGRJ-26" value="90" style="whiteSpace=wrap;html=1;aspect=fixed;" vertex="1" parent="1">
          <mxGeometry x="1280" y="440" width="30" height="30" as="geometry" />
        </mxCell>
        <mxCell id="6Nf89VIRa7p8WbnDOGRJ-35" value="-69" style="strokeWidth=2;html=1;shape=mxgraph.flowchart.merge_or_storage;whiteSpace=wrap;fillColor=#ffffff;" vertex="1" parent="1">
          <mxGeometry x="57.5" y="370" width="55" height="30" as="geometry" />
        </mxCell>
        <mxCell id="6Nf89VIRa7p8WbnDOGRJ-36" value="-85" style="strokeWidth=2;html=1;shape=mxgraph.flowchart.merge_or_storage;whiteSpace=wrap;fillColor=#ffffff;" vertex="1" parent="1">
          <mxGeometry x="247.5" y="370" width="55" height="30" as="geometry" />
        </mxCell>
        <mxCell id="6Nf89VIRa7p8WbnDOGRJ-37" value="-86" style="strokeWidth=2;html=1;shape=mxgraph.flowchart.merge_or_storage;whiteSpace=wrap;fillColor=#ffffff;" vertex="1" parent="1">
          <mxGeometry x="414" y="370" width="55" height="30" as="geometry" />
        </mxCell>
        <mxCell id="6Nf89VIRa7p8WbnDOGRJ-38" value="-82" style="strokeWidth=2;html=1;shape=mxgraph.flowchart.merge_or_storage;whiteSpace=wrap;fillColor=#ffffff;" vertex="1" parent="1">
          <mxGeometry x="587.5" y="370" width="55" height="30" as="geometry" />
        </mxCell>
        <mxCell id="6Nf89VIRa7p8WbnDOGRJ-39" value="-69" style="strokeWidth=2;html=1;shape=mxgraph.flowchart.merge_or_storage;whiteSpace=wrap;fillColor=#ffffff;" vertex="1" parent="1">
          <mxGeometry x="757.5" y="370" width="55" height="30" as="geometry" />
        </mxCell>
        <mxCell id="6Nf89VIRa7p8WbnDOGRJ-40" value="-65" style="strokeWidth=2;html=1;shape=mxgraph.flowchart.merge_or_storage;whiteSpace=wrap;fillColor=#ffffff;" vertex="1" parent="1">
          <mxGeometry x="937.5" y="370" width="55" height="30" as="geometry" />
        </mxCell>
        <mxCell id="6Nf89VIRa7p8WbnDOGRJ-41" value="-67" style="strokeWidth=2;html=1;shape=mxgraph.flowchart.merge_or_storage;whiteSpace=wrap;fillColor=#ffffff;" vertex="1" parent="1">
          <mxGeometry x="1107.5" y="370" width="55" height="30" as="geometry" />
        </mxCell>
        <mxCell id="6Nf89VIRa7p8WbnDOGRJ-42" value="-69" style="strokeWidth=2;html=1;shape=mxgraph.flowchart.merge_or_storage;whiteSpace=wrap;fillColor=#ffffff;" vertex="1" parent="1">
          <mxGeometry x="1255" y="370" width="55" height="30" as="geometry" />
        </mxCell>
        <mxCell id="6Nf89VIRa7p8WbnDOGRJ-43" value="" style="endArrow=none;html=1;" edge="1" parent="1">
          <mxGeometry width="50" height="50" relative="1" as="geometry">
            <mxPoint x="40" y="440" as="sourcePoint" />
            <mxPoint x="80" y="400" as="targetPoint" />
          </mxGeometry>
        </mxCell>
        <mxCell id="6Nf89VIRa7p8WbnDOGRJ-44" value="" style="endArrow=none;html=1;entryX=0.5;entryY=1;entryDx=0;entryDy=0;entryPerimeter=0;" edge="1" parent="1" target="6Nf89VIRa7p8WbnDOGRJ-35">
          <mxGeometry width="50" height="50" relative="1" as="geometry">
            <mxPoint x="90" y="440" as="sourcePoint" />
            <mxPoint x="130" y="400" as="targetPoint" />
          </mxGeometry>
        </mxCell>
        <mxCell id="6Nf89VIRa7p8WbnDOGRJ-45" value="" style="endArrow=none;html=1;entryX=0.5;entryY=1;entryDx=0;entryDy=0;entryPerimeter=0;" edge="1" parent="1" target="6Nf89VIRa7p8WbnDOGRJ-35">
          <mxGeometry width="50" height="50" relative="1" as="geometry">
            <mxPoint x="140" y="440" as="sourcePoint" />
            <mxPoint x="180" y="400" as="targetPoint" />
          </mxGeometry>
        </mxCell>
        <mxCell id="6Nf89VIRa7p8WbnDOGRJ-46" value="" style="endArrow=none;html=1;exitX=0.5;exitY=1;exitDx=0;exitDy=0;exitPerimeter=0;" edge="1" parent="1" source="6Nf89VIRa7p8WbnDOGRJ-36">
          <mxGeometry width="50" height="50" relative="1" as="geometry">
            <mxPoint x="210" y="400" as="sourcePoint" />
            <mxPoint x="230" y="440" as="targetPoint" />
          </mxGeometry>
        </mxCell>
        <mxCell id="6Nf89VIRa7p8WbnDOGRJ-47" value="" style="endArrow=none;html=1;entryX=0.5;entryY=1;entryDx=0;entryDy=0;entryPerimeter=0;exitX=0.5;exitY=0;exitDx=0;exitDy=0;" edge="1" parent="1" source="6Nf89VIRa7p8WbnDOGRJ-6" target="6Nf89VIRa7p8WbnDOGRJ-36">
          <mxGeometry width="50" height="50" relative="1" as="geometry">
            <mxPoint x="270" y="430" as="sourcePoint" />
            <mxPoint x="310" y="390" as="targetPoint" />
          </mxGeometry>
        </mxCell>
        <mxCell id="6Nf89VIRa7p8WbnDOGRJ-48" value="" style="endArrow=none;html=1;exitX=0.5;exitY=0;exitDx=0;exitDy=0;entryX=0.5;entryY=1;entryDx=0;entryDy=0;entryPerimeter=0;" edge="1" parent="1" source="6Nf89VIRa7p8WbnDOGRJ-7" target="6Nf89VIRa7p8WbnDOGRJ-36">
          <mxGeometry width="50" height="50" relative="1" as="geometry">
            <mxPoint x="340" y="400" as="sourcePoint" />
            <mxPoint x="380" y="360" as="targetPoint" />
          </mxGeometry>
        </mxCell>
        <mxCell id="6Nf89VIRa7p8WbnDOGRJ-49" value="" style="endArrow=none;html=1;" edge="1" parent="1">
          <mxGeometry width="50" height="50" relative="1" as="geometry">
            <mxPoint x="400" y="440" as="sourcePoint" />
            <mxPoint x="440" y="400" as="targetPoint" />
          </mxGeometry>
        </mxCell>
        <mxCell id="6Nf89VIRa7p8WbnDOGRJ-50" value="" style="endArrow=none;html=1;entryX=0.5;entryY=1;entryDx=0;entryDy=0;entryPerimeter=0;" edge="1" parent="1" target="6Nf89VIRa7p8WbnDOGRJ-37">
          <mxGeometry width="50" height="50" relative="1" as="geometry">
            <mxPoint x="450" y="440" as="sourcePoint" />
            <mxPoint x="490" y="400" as="targetPoint" />
          </mxGeometry>
        </mxCell>
        <mxCell id="6Nf89VIRa7p8WbnDOGRJ-51" value="" style="endArrow=none;html=1;exitX=0.25;exitY=0;exitDx=0;exitDy=0;entryX=0.5;entryY=1;entryDx=0;entryDy=0;entryPerimeter=0;" edge="1" parent="1" source="6Nf89VIRa7p8WbnDOGRJ-10" target="6Nf89VIRa7p8WbnDOGRJ-37">
          <mxGeometry width="50" height="50" relative="1" as="geometry">
            <mxPoint x="490" y="410" as="sourcePoint" />
            <mxPoint x="530" y="370" as="targetPoint" />
          </mxGeometry>
        </mxCell>
        <mxCell id="6Nf89VIRa7p8WbnDOGRJ-52" value="" style="endArrow=none;html=1;entryX=0.5;entryY=1;entryDx=0;entryDy=0;entryPerimeter=0;" edge="1" parent="1" target="6Nf89VIRa7p8WbnDOGRJ-38">
          <mxGeometry width="50" height="50" relative="1" as="geometry">
            <mxPoint x="560" y="440" as="sourcePoint" />
            <mxPoint x="600" y="400" as="targetPoint" />
          </mxGeometry>
        </mxCell>
        <mxCell id="6Nf89VIRa7p8WbnDOGRJ-53" value="" style="endArrow=none;html=1;exitX=0.75;exitY=0;exitDx=0;exitDy=0;entryX=0.5;entryY=1;entryDx=0;entryDy=0;entryPerimeter=0;" edge="1" parent="1" source="6Nf89VIRa7p8WbnDOGRJ-12" target="6Nf89VIRa7p8WbnDOGRJ-38">
          <mxGeometry width="50" height="50" relative="1" as="geometry">
            <mxPoint x="650" y="410" as="sourcePoint" />
            <mxPoint x="690" y="370" as="targetPoint" />
          </mxGeometry>
        </mxCell>
        <mxCell id="6Nf89VIRa7p8WbnDOGRJ-54" value="" style="endArrow=none;html=1;exitX=0.5;exitY=0;exitDx=0;exitDy=0;entryX=0.5;entryY=1;entryDx=0;entryDy=0;entryPerimeter=0;" edge="1" parent="1" source="6Nf89VIRa7p8WbnDOGRJ-13" target="6Nf89VIRa7p8WbnDOGRJ-38">
          <mxGeometry width="50" height="50" relative="1" as="geometry">
            <mxPoint x="690" y="410" as="sourcePoint" />
            <mxPoint x="730" y="370" as="targetPoint" />
          </mxGeometry>
        </mxCell>
        <mxCell id="6Nf89VIRa7p8WbnDOGRJ-55" value="" style="endArrow=none;html=1;entryX=0.5;entryY=1;entryDx=0;entryDy=0;entryPerimeter=0;" edge="1" parent="1" target="6Nf89VIRa7p8WbnDOGRJ-39">
          <mxGeometry width="50" height="50" relative="1" as="geometry">
            <mxPoint x="730" y="440" as="sourcePoint" />
            <mxPoint x="770" y="400" as="targetPoint" />
          </mxGeometry>
        </mxCell>
        <mxCell id="6Nf89VIRa7p8WbnDOGRJ-56" value="" style="endArrow=none;html=1;entryX=0.5;entryY=1;entryDx=0;entryDy=0;entryPerimeter=0;" edge="1" parent="1" target="6Nf89VIRa7p8WbnDOGRJ-39">
          <mxGeometry width="50" height="50" relative="1" as="geometry">
            <mxPoint x="787" y="440" as="sourcePoint" />
            <mxPoint x="827" y="400" as="targetPoint" />
          </mxGeometry>
        </mxCell>
        <mxCell id="6Nf89VIRa7p8WbnDOGRJ-57" value="" style="endArrow=none;html=1;exitX=0.5;exitY=0;exitDx=0;exitDy=0;entryX=0.5;entryY=1;entryDx=0;entryDy=0;entryPerimeter=0;" edge="1" parent="1" source="6Nf89VIRa7p8WbnDOGRJ-18" target="6Nf89VIRa7p8WbnDOGRJ-39">
          <mxGeometry width="50" height="50" relative="1" as="geometry">
            <mxPoint x="827" y="440" as="sourcePoint" />
            <mxPoint x="867" y="400" as="targetPoint" />
          </mxGeometry>
        </mxCell>
        <mxCell id="6Nf89VIRa7p8WbnDOGRJ-58" value="" style="endArrow=none;html=1;" edge="1" parent="1">
          <mxGeometry width="50" height="50" relative="1" as="geometry">
            <mxPoint x="920" y="440" as="sourcePoint" />
            <mxPoint x="960" y="390" as="targetPoint" />
          </mxGeometry>
        </mxCell>
        <mxCell id="6Nf89VIRa7p8WbnDOGRJ-59" value="" style="endArrow=none;html=1;exitX=0.5;exitY=0;exitDx=0;exitDy=0;entryX=0.5;entryY=1;entryDx=0;entryDy=0;entryPerimeter=0;" edge="1" parent="1" source="6Nf89VIRa7p8WbnDOGRJ-20" target="6Nf89VIRa7p8WbnDOGRJ-40">
          <mxGeometry width="50" height="50" relative="1" as="geometry">
            <mxPoint x="980" y="420" as="sourcePoint" />
            <mxPoint x="1020" y="380" as="targetPoint" />
          </mxGeometry>
        </mxCell>
        <mxCell id="6Nf89VIRa7p8WbnDOGRJ-60" value="" style="endArrow=none;html=1;exitX=0.5;exitY=0;exitDx=0;exitDy=0;entryX=0.5;entryY=1;entryDx=0;entryDy=0;entryPerimeter=0;" edge="1" parent="1" source="6Nf89VIRa7p8WbnDOGRJ-21" target="6Nf89VIRa7p8WbnDOGRJ-40">
          <mxGeometry width="50" height="50" relative="1" as="geometry">
            <mxPoint x="1000" y="410" as="sourcePoint" />
            <mxPoint x="1040" y="370" as="targetPoint" />
          </mxGeometry>
        </mxCell>
        <mxCell id="6Nf89VIRa7p8WbnDOGRJ-61" value="" style="endArrow=none;html=1;entryX=0.5;entryY=1;entryDx=0;entryDy=0;entryPerimeter=0;exitX=0.5;exitY=0;exitDx=0;exitDy=0;" edge="1" parent="1" source="6Nf89VIRa7p8WbnDOGRJ-22" target="6Nf89VIRa7p8WbnDOGRJ-41">
          <mxGeometry width="50" height="50" relative="1" as="geometry">
            <mxPoint x="1040" y="410" as="sourcePoint" />
            <mxPoint x="1080" y="370" as="targetPoint" />
          </mxGeometry>
        </mxCell>
        <mxCell id="6Nf89VIRa7p8WbnDOGRJ-62" value="" style="endArrow=none;html=1;exitX=0.5;exitY=0;exitDx=0;exitDy=0;entryX=0.5;entryY=1;entryDx=0;entryDy=0;entryPerimeter=0;" edge="1" parent="1" source="6Nf89VIRa7p8WbnDOGRJ-23" target="6Nf89VIRa7p8WbnDOGRJ-41">
          <mxGeometry width="50" height="50" relative="1" as="geometry">
            <mxPoint x="1150" y="420" as="sourcePoint" />
            <mxPoint x="1190" y="380" as="targetPoint" />
          </mxGeometry>
        </mxCell>
        <mxCell id="6Nf89VIRa7p8WbnDOGRJ-63" value="" style="endArrow=none;html=1;exitX=0.5;exitY=0;exitDx=0;exitDy=0;entryX=0.5;entryY=1;entryDx=0;entryDy=0;entryPerimeter=0;" edge="1" parent="1" source="6Nf89VIRa7p8WbnDOGRJ-24" target="6Nf89VIRa7p8WbnDOGRJ-41">
          <mxGeometry width="50" height="50" relative="1" as="geometry">
            <mxPoint x="1200" y="400" as="sourcePoint" />
            <mxPoint x="1240" y="360" as="targetPoint" />
          </mxGeometry>
        </mxCell>
        <mxCell id="6Nf89VIRa7p8WbnDOGRJ-64" value="" style="endArrow=none;html=1;exitX=0.25;exitY=0;exitDx=0;exitDy=0;entryX=0.5;entryY=1;entryDx=0;entryDy=0;entryPerimeter=0;" edge="1" parent="1" source="6Nf89VIRa7p8WbnDOGRJ-25" target="6Nf89VIRa7p8WbnDOGRJ-42">
          <mxGeometry width="50" height="50" relative="1" as="geometry">
            <mxPoint x="1250" y="410" as="sourcePoint" />
            <mxPoint x="1290" y="370" as="targetPoint" />
          </mxGeometry>
        </mxCell>
        <mxCell id="6Nf89VIRa7p8WbnDOGRJ-65" value="" style="endArrow=none;html=1;exitX=0.5;exitY=0;exitDx=0;exitDy=0;entryX=0.636;entryY=1;entryDx=0;entryDy=0;entryPerimeter=0;" edge="1" parent="1" source="6Nf89VIRa7p8WbnDOGRJ-26" target="6Nf89VIRa7p8WbnDOGRJ-42">
          <mxGeometry width="50" height="50" relative="1" as="geometry">
            <mxPoint x="1310" y="420" as="sourcePoint" />
            <mxPoint x="1350" y="380" as="targetPoint" />
          </mxGeometry>
        </mxCell>
        <mxCell id="6Nf89VIRa7p8WbnDOGRJ-66" value="-69" style="strokeWidth=2;html=1;shape=mxgraph.flowchart.extract_or_measurement;whiteSpace=wrap;fillColor=#ffffff;" vertex="1" parent="1">
          <mxGeometry x="248.75" y="260" width="52.5" height="30" as="geometry" />
        </mxCell>
        <mxCell id="6Nf89VIRa7p8WbnDOGRJ-67" value="" style="endArrow=none;html=1;exitX=0.5;exitY=0;exitDx=0;exitDy=0;exitPerimeter=0;entryX=0.5;entryY=1;entryDx=0;entryDy=0;entryPerimeter=0;" edge="1" parent="1" source="6Nf89VIRa7p8WbnDOGRJ-35" target="6Nf89VIRa7p8WbnDOGRJ-66">
          <mxGeometry width="50" height="50" relative="1" as="geometry">
            <mxPoint x="90" y="350" as="sourcePoint" />
            <mxPoint x="130" y="310" as="targetPoint" />
          </mxGeometry>
        </mxCell>
        <mxCell id="6Nf89VIRa7p8WbnDOGRJ-68" value="" style="endArrow=none;html=1;exitX=0.5;exitY=0;exitDx=0;exitDy=0;exitPerimeter=0;entryX=0.5;entryY=1;entryDx=0;entryDy=0;entryPerimeter=0;" edge="1" parent="1" source="6Nf89VIRa7p8WbnDOGRJ-36" target="6Nf89VIRa7p8WbnDOGRJ-66">
          <mxGeometry width="50" height="50" relative="1" as="geometry">
            <mxPoint x="270" y="310" as="sourcePoint" />
            <mxPoint x="310" y="270" as="targetPoint" />
          </mxGeometry>
        </mxCell>
        <mxCell id="6Nf89VIRa7p8WbnDOGRJ-69" value="" style="endArrow=none;html=1;exitX=0.5;exitY=0;exitDx=0;exitDy=0;exitPerimeter=0;entryX=0.5;entryY=1;entryDx=0;entryDy=0;entryPerimeter=0;" edge="1" parent="1" source="6Nf89VIRa7p8WbnDOGRJ-37" target="6Nf89VIRa7p8WbnDOGRJ-66">
          <mxGeometry width="50" height="50" relative="1" as="geometry">
            <mxPoint x="340" y="280" as="sourcePoint" />
            <mxPoint x="380" y="240" as="targetPoint" />
          </mxGeometry>
        </mxCell>
        <mxCell id="6Nf89VIRa7p8WbnDOGRJ-70" value="-65" style="strokeWidth=2;html=1;shape=mxgraph.flowchart.extract_or_measurement;whiteSpace=wrap;fillColor=#ffffff;" vertex="1" parent="1">
          <mxGeometry x="755" y="260" width="60" height="30" as="geometry" />
        </mxCell>
        <mxCell id="6Nf89VIRa7p8WbnDOGRJ-71" value="" style="endArrow=none;html=1;exitX=0.627;exitY=-0.1;exitDx=0;exitDy=0;exitPerimeter=0;entryX=0.5;entryY=1;entryDx=0;entryDy=0;entryPerimeter=0;" edge="1" parent="1" source="6Nf89VIRa7p8WbnDOGRJ-38" target="6Nf89VIRa7p8WbnDOGRJ-70">
          <mxGeometry width="50" height="50" relative="1" as="geometry">
            <mxPoint x="640" y="320" as="sourcePoint" />
            <mxPoint x="680" y="280" as="targetPoint" />
          </mxGeometry>
        </mxCell>
        <mxCell id="6Nf89VIRa7p8WbnDOGRJ-72" value="" style="endArrow=none;html=1;exitX=0.5;exitY=0;exitDx=0;exitDy=0;exitPerimeter=0;entryX=0.5;entryY=1;entryDx=0;entryDy=0;entryPerimeter=0;" edge="1" parent="1" source="6Nf89VIRa7p8WbnDOGRJ-39" target="6Nf89VIRa7p8WbnDOGRJ-70">
          <mxGeometry width="50" height="50" relative="1" as="geometry">
            <mxPoint x="810" y="310" as="sourcePoint" />
            <mxPoint x="850" y="270" as="targetPoint" />
          </mxGeometry>
        </mxCell>
        <mxCell id="6Nf89VIRa7p8WbnDOGRJ-73" value="" style="endArrow=none;html=1;exitX=0.5;exitY=0;exitDx=0;exitDy=0;exitPerimeter=0;entryX=0.5;entryY=1;entryDx=0;entryDy=0;entryPerimeter=0;" edge="1" parent="1" source="6Nf89VIRa7p8WbnDOGRJ-40" target="6Nf89VIRa7p8WbnDOGRJ-70">
          <mxGeometry width="50" height="50" relative="1" as="geometry">
            <mxPoint x="860" y="300" as="sourcePoint" />
            <mxPoint x="900" y="260" as="targetPoint" />
          </mxGeometry>
        </mxCell>
        <mxCell id="6Nf89VIRa7p8WbnDOGRJ-74" value="-67" style="strokeWidth=2;html=1;shape=mxgraph.flowchart.extract_or_measurement;whiteSpace=wrap;fillColor=#ffffff;" vertex="1" parent="1">
          <mxGeometry x="1170" y="260" width="57.5" height="30" as="geometry" />
        </mxCell>
        <mxCell id="6Nf89VIRa7p8WbnDOGRJ-75" value="" style="endArrow=none;html=1;exitX=0.5;exitY=0;exitDx=0;exitDy=0;exitPerimeter=0;entryX=0.5;entryY=1;entryDx=0;entryDy=0;entryPerimeter=0;" edge="1" parent="1" source="6Nf89VIRa7p8WbnDOGRJ-41" target="6Nf89VIRa7p8WbnDOGRJ-74">
          <mxGeometry width="50" height="50" relative="1" as="geometry">
            <mxPoint x="1122.5" y="330" as="sourcePoint" />
            <mxPoint x="1162.5" y="290" as="targetPoint" />
          </mxGeometry>
        </mxCell>
        <mxCell id="6Nf89VIRa7p8WbnDOGRJ-76" value="" style="endArrow=none;html=1;exitX=0.5;exitY=0;exitDx=0;exitDy=0;exitPerimeter=0;entryX=0.5;entryY=1;entryDx=0;entryDy=0;entryPerimeter=0;" edge="1" parent="1" source="6Nf89VIRa7p8WbnDOGRJ-42" target="6Nf89VIRa7p8WbnDOGRJ-74">
          <mxGeometry width="50" height="50" relative="1" as="geometry">
            <mxPoint x="1260" y="330" as="sourcePoint" />
            <mxPoint x="1300" y="290" as="targetPoint" />
          </mxGeometry>
        </mxCell>
        <mxCell id="6Nf89VIRa7p8WbnDOGRJ-78" value="" style="endArrow=none;html=1;exitX=0.5;exitY=0;exitDx=0;exitDy=0;exitPerimeter=0;entryX=0.5;entryY=1;entryDx=0;entryDy=0;entryPerimeter=0;" edge="1" parent="1" source="6Nf89VIRa7p8WbnDOGRJ-66">
          <mxGeometry width="50" height="50" relative="1" as="geometry">
            <mxPoint x="350" y="200" as="sourcePoint" />
            <mxPoint x="785" y="190" as="targetPoint" />
          </mxGeometry>
        </mxCell>
        <mxCell id="6Nf89VIRa7p8WbnDOGRJ-79" value="" style="endArrow=none;html=1;exitX=0.5;exitY=0;exitDx=0;exitDy=0;exitPerimeter=0;" edge="1" parent="1" source="6Nf89VIRa7p8WbnDOGRJ-70">
          <mxGeometry width="50" height="50" relative="1" as="geometry">
            <mxPoint x="750" y="230" as="sourcePoint" />
            <mxPoint x="790" y="190" as="targetPoint" />
          </mxGeometry>
        </mxCell>
        <mxCell id="6Nf89VIRa7p8WbnDOGRJ-80" value="" style="endArrow=none;html=1;exitX=0.5;exitY=0;exitDx=0;exitDy=0;exitPerimeter=0;entryX=0.5;entryY=1;entryDx=0;entryDy=0;entryPerimeter=0;" edge="1" parent="1" source="6Nf89VIRa7p8WbnDOGRJ-74">
          <mxGeometry width="50" height="50" relative="1" as="geometry">
            <mxPoint x="1150" y="240" as="sourcePoint" />
            <mxPoint x="785" y="190" as="targetPoint" />
          </mxGeometry>
        </mxCell>
        <mxCell id="6Nf89VIRa7p8WbnDOGRJ-81" value="-69" style="strokeWidth=2;html=1;shape=mxgraph.flowchart.merge_or_storage;whiteSpace=wrap;fillColor=#ffffff;" vertex="1" parent="1">
          <mxGeometry x="757.5" y="150" width="62.5" height="40" as="geometry" />
        </mxCell>
      </root>
    </mxGraphModel>
  </diagram>
</mxfile>
